<svg xmlns="http://www.w3.org/2000/svg" xmlns:xlink="http://www.w3.org/1999/xlink" preserveAspectRatio="xMidYMid meet" width="1080" height="1080" viewBox="0 0 1080 1080" style="width:100%;height:100%"><defs><animateTransform repeatCount="indefinite" dur="2s" begin="0s" xlink:href="#_R_G_L_0_G" fill="freeze" attributeName="transform" from="0" to="360" type="rotate" additive="sum" keyTimes="0;1" values="0;360" keySplines="0.167 0.167 0.833 0.833" calcMode="spline"/><animate attributeType="XML" attributeName="opacity" dur="2s" from="0" to="1" xlink:href="#time_group"/></defs><g id="_R_G"><g id="_R_G_L_0_G" transform=" translate(540, 540)"><path id="_R_G_L_0_G_D_0_P_0" fill="#4285f4" fill-opacity="1" fill-rule="nonzero" d=" M-21.92 -37.23 C-33.9,-28.79 -43.69,-17.32 -49.63,-2.46 C-66.43,39.59 -45.17,87.5 -5.41,107.09 C35.32,127.15 86.16,117.88 123.72,92.37 C157.48,69.44 182.86,33.35 189.51,-6.92 C196.65,-50.14 181.83,-95.39 154.53,-129.66 C107.53,-188.67 24.08,-214.58 -49.05,-196.02 C-122.17,-177.46 -182.17,-116.98 -203.74,-44.69 C-225.31,27.6 -209.24,109.24 -164.92,170.29 C-120.6,231.34 -49.74,271.45 24.97,281.93 C-65.93,285.87 -157.62,242.97 -212.87,170.67 C-318.35,32.63 -271.78,-179.58 -113.98,-255.52 C-45.83,-288.32 36.17,-291.01 106.32,-262.74 C191.79,-228.3 257.54,-146.47 268.12,-54.94 C278.7,36.6 231.18,133.41 150.06,177.1 C97.1,205.63 31.16,210.97 -24.06,187.11 C-79.27,163.25 -121.47,109.26 -126.95,49.36 C-132.43,-10.54 -98.59,-73.24 -43.68,-97.8 C-15.72,-110.32 16.9,-112.94 45.96,-103.22 C75.01,-93.5 99.95,-71.08 110.99,-42.5 C107.8,-50.76 62.87,-55.02 54.61,-55.71 C28.43,-57.87 -0.31,-52.47 -21.92,-37.23z "/></g></g><g id="time_group"/></svg>